<svg viewBox="0 0 100 100" xmlns="http://www.w3.org/2000/svg">
  <defs>
    <linearGradient id="clGradShield" x1="10" y1="10" x2="90" y2="95" gradientUnits="userSpaceOnUse">
      <stop offset="0%" stop-color="#1a3a5c"/>
      <stop offset="55%" stop-color="#1e6f6c"/>
      <stop offset="100%" stop-color="#2dd4bf"/>
    </linearGradient>
  </defs>
  <!-- Escudo -->
  <path d="M50 7 L83 20 V51 C83 73 68 87 50 95 C32 87 17 73 17 51 V20 Z"
        fill="none" stroke="url(#clGradShield)" stroke-width="5.5" stroke-linejoin="round"/>
  <!-- Persona 1 (atrás) -->
  <circle cx="40" cy="38" r="8.5" fill="#5eead4"/>
  <path d="M25 63 C25 51 31 45 40 45 C49 45 55 51 55 63 Z" fill="#5eead4"/>
  <!-- Persona 2 (al frente) -->
  <circle cx="55" cy="33" r="9.5" fill="#14b8a6"/>
  <path d="M38 61 C38 48 45.5 41 55 41 C64.5 41 72 48 72 61 Z" fill="#14b8a6"/>
  <!-- Palomita -->
  <path d="M29 61 L45 77 L78 40" fill="none" stroke="#16365a" stroke-width="8.5"
        stroke-linecap="round" stroke-linejoin="round"/>
</svg>
